# Blender v3.1.2 OBJ File: 'men.blend'
# www.blender.org
mtllib men.mtl
o 平面
v -0.611814 0.292659 0.313755
v -0.306600 0.320734 0.313755
v -0.306600 0.292659 0.611814
v -0.612197 0.264337 0.612197
v -0.306600 0.196229 0.912465
v -0.306600 0.076227 1.000000
v -0.589281 0.076227 0.934998
v -0.612197 0.206127 0.793688
v -0.912465 0.196229 0.313755
v -0.793688 0.206127 0.612197
v -0.934998 0.076227 0.589281
v -1.000000 0.076227 0.313755
v -0.589281 -0.076227 0.934998
v -0.306600 -0.076227 1.000000
v -0.306600 -0.196229 0.912465
v -0.612197 -0.206127 0.793688
v -0.306600 -0.292659 0.611814
v -0.306600 -0.320734 0.313755
v -0.611814 -0.292659 0.313755
v -0.612197 -0.264337 0.612197
v -0.934998 -0.076227 0.589281
v -0.793688 -0.206127 0.612197
v -0.912465 -0.196229 0.313755
v -1.000000 -0.076227 0.313755
v -0.306600 0.292659 -0.611814
v -0.306600 0.320734 -0.240998
v -0.611814 0.292659 -0.240998
v -0.612197 0.264337 -0.612197
v -0.912465 0.196229 -0.240998
v -1.000000 0.076227 -0.240998
v -0.934998 0.076227 -0.589281
v -0.793688 0.206127 -0.612197
v -0.306600 0.196229 -0.912465
v -0.612197 0.206127 -0.793688
v -0.589281 0.076227 -0.934998
v -0.306600 0.076227 -1.000000
v -0.611814 -0.292659 -0.240998
v -0.306600 -0.320734 -0.240998
v -0.306600 -0.292659 -0.611814
v -0.612197 -0.264337 -0.612197
v -0.306600 -0.196229 -0.912465
v -0.306600 -0.076227 -1.000000
v -0.589281 -0.076227 -0.934998
v -0.612197 -0.206127 -0.793688
v -0.912465 -0.196229 -0.240998
v -0.793688 -0.206127 -0.612197
v -0.934998 -0.076227 -0.589281
v -1.000000 -0.076227 -0.240998
v 0.270302 0.292659 0.611814
v 0.270302 0.320734 0.313755
v 0.611814 0.292659 0.313755
v 0.612197 0.264337 0.612197
v 0.912465 0.196229 0.313755
v 1.000000 0.076227 0.313755
v 0.934998 0.076227 0.589281
v 0.793688 0.206127 0.612197
v 0.270302 0.196229 0.912465
v 0.612197 0.206127 0.793688
v 0.589281 0.076227 0.934998
v 0.270302 0.076227 1.000000
v 0.611814 -0.292659 0.313755
v 0.270302 -0.320734 0.313755
v 0.270302 -0.292659 0.611814
v 0.612197 -0.264337 0.612197
v 0.270302 -0.196229 0.912465
v 0.270302 -0.076227 1.000000
v 0.589281 -0.076227 0.934998
v 0.612197 -0.206127 0.793688
v 0.912465 -0.196229 0.313755
v 0.793688 -0.206127 0.612197
v 0.934998 -0.076227 0.589281
v 1.000000 -0.076227 0.313755
v 0.611814 0.292659 -0.240998
v 0.270302 0.320734 -0.240998
v 0.270302 0.292659 -0.611814
v 0.612197 0.264337 -0.612197
v 0.270302 0.196229 -0.912465
v 0.270302 0.076227 -1.000000
v 0.589281 0.076227 -0.934998
v 0.612197 0.206127 -0.793688
v 0.912465 0.196229 -0.240998
v 0.793688 0.206127 -0.612197
v 0.934998 0.076227 -0.589281
v 1.000000 0.076227 -0.240998
v 0.270302 -0.292659 -0.611814
v 0.270302 -0.320734 -0.240998
v 0.611814 -0.292659 -0.240998
v 0.612197 -0.264337 -0.612197
v 0.912465 -0.196229 -0.240998
v 1.000000 -0.076227 -0.240998
v 0.934998 -0.076227 -0.589281
v 0.793688 -0.206127 -0.612197
v 0.270302 -0.196229 -0.912465
v 0.612197 -0.206127 -0.793688
v 0.589281 -0.076227 -0.934998
v 0.270302 -0.076227 -1.000000
v -0.018149 0.320734 -0.240998
v -0.018149 0.292659 -0.611814
v -0.018149 0.076227 -1.000000
v -0.018149 0.196229 -0.912465
v -0.018149 -0.320734 -0.240998
v -0.018149 -0.292659 -0.611814
v -0.018149 -0.076227 -1.000000
v -0.018149 -0.196229 -0.912465
v -0.018149 0.320734 0.313755
v -0.018149 0.292659 0.611814
v -0.018149 0.076227 1.000000
v -0.018149 0.196229 0.912465
v -0.018149 -0.320734 0.313755
v -0.018149 -0.292659 0.611814
v -0.018149 -0.076227 1.000000
v -0.018149 -0.196229 0.912465
vt 0.064627 0.618649
vt 0.026974 0.610051
vt 0.023354 0.750502
vt 0.418075 0.632105
vt 0.415554 0.747205
vt 0.482692 0.750611
vt 0.671925 0.388272
vt 0.735436 0.388518
vt 0.735758 0.458694
vt 0.164400 0.527764
vt 0.127227 0.563624
vt 0.165569 0.565802
vt 0.160071 0.817104
vt 0.122094 0.817262
vt 0.156833 0.855485
vt 0.798124 0.307546
vt 0.734859 0.308218
vt 0.733915 0.189094
vt 0.227864 0.565773
vt 0.288382 0.565739
vt 0.289306 0.495793
vt 0.129609 0.927590
vt 0.151154 0.896652
vt 0.082102 0.820739
vt 0.343790 0.822762
vt 0.283304 0.822554
vt 0.281884 0.892341
vt 0.873151 0.307032
vt 0.871807 0.188137
vt 0.941823 0.186077
vt 0.873614 0.385881
vt 0.914424 0.386763
vt 0.876312 0.426330
vt 0.523575 0.849321
vt 0.492151 0.829355
vt 0.419002 0.900270
vt 0.603001 0.126751
vt 0.562082 0.125839
vt 0.600384 0.086210
vt 0.289550 0.460093
vt 0.289379 0.420204
vt 0.211993 0.428462
vt 0.224843 0.742954
vt 0.284881 0.744462
vt 0.287216 0.628807
vt 0.281157 0.927947
vt 0.280667 0.967796
vt 0.358064 0.960792
vt 0.605516 0.388263
vt 0.604165 0.428233
vt 0.564240 0.390465
vt 0.871340 0.124688
vt 0.872663 0.084728
vt 0.912660 0.122506
vt 0.413238 0.822571
vt 0.414368 0.860445
vt 0.451377 0.824862
vt 0.449590 0.460681
vt 0.428314 0.491812
vt 0.497973 0.567829
vt 0.419534 0.571462
vt 0.457663 0.571298
vt 0.422739 0.532996
vt 0.516582 0.754387
vt 0.554528 0.761441
vt 0.554528 0.620798
vt 0.159730 0.487708
vt 0.141095 0.456061
vt 0.054724 0.539140
vt 0.161318 0.741749
vt 0.164289 0.626519
vt 0.097979 0.622945
vt 0.797053 0.124514
vt 0.733404 0.124358
vt 0.732859 0.054143
vt 0.603663 0.190292
vt 0.669566 0.125674
vt 0.666972 0.056787
vt 0.596278 0.042599
vt 0.533485 0.188911
vt 0.499426 0.186329
vt 0.517652 0.122021
vt 0.225157 0.498848
vt 0.086139 0.559317
vt 0.604587 0.309287
vt 0.534038 0.310986
vt 0.519929 0.393936
vt 0.669989 0.457015
vt 0.666767 0.490529
vt 0.599752 0.471598
vt 0.222502 0.819899
vt 0.217660 0.886996
vt 0.094114 0.742662
vt 0.060459 0.745227
vt 0.957108 0.118928
vt 0.798734 0.055485
vt 0.801651 0.021928
vt 0.876985 0.041404
vt 0.349474 0.568151
vt 0.353990 0.500391
vt 0.484460 0.630794
vt 0.517630 0.627538
vt 0.799275 0.387299
vt 0.801737 0.456391
vt 0.880440 0.469776
vt 0.943763 0.307975
vt 0.977813 0.309984
vt 0.958666 0.390484
vt 0.346145 0.890000
vt 0.350398 0.923529
vt 0.670654 0.189862
vt 0.671716 0.308643
vt 0.499426 0.313412
vt 0.220483 0.465582
vt 0.227403 0.627776
vt 0.201990 0.959071
vt 0.212196 0.920783
vt 0.049805 0.837725
vt 0.804971 0.490381
vt 0.735828 0.493075
vt 0.344738 0.745650
vt 0.437278 0.931839
vt 0.797049 0.188712
vt 0.976324 0.183110
vt 0.347319 0.630438
vt 0.368338 0.427531
vt 0.359074 0.466173
vt 0.530352 0.550284
vt 0.663493 0.022811
vt 0.732599 0.019787
vn -1.0000 0.0000 0.0000
vn 0.3054 -0.9522 0.0000
vn 0.0000 0.9522 -0.3054
vn -0.2921 -0.9107 0.2921
vn -0.2921 -0.9107 -0.2921
vn 0.0000 1.0000 0.0000
vn 0.0000 -0.9522 0.3054
vn -0.7071 0.0000 -0.7071
vn 0.0000 -0.9522 -0.3054
vn 0.3054 0.9522 0.0000
vn 0.2921 0.9107 -0.2921
vn 0.7071 0.0000 -0.7071
vn -0.2921 0.9107 0.2921
vn 0.0000 0.0000 1.0000
vn 0.0000 -1.0000 0.0000
vn 0.0000 0.0000 -1.0000
vn -0.2921 0.9107 -0.2921
vn 0.2921 0.9107 0.2921
vn 0.2921 -0.9107 -0.2921
vn 0.7071 0.0000 0.7071
vn 0.2921 -0.9107 0.2921
vn 1.0000 0.0000 0.0000
vn -0.7071 0.0000 0.7071
vn -0.3054 -0.9522 0.0000
vn 0.0000 0.9522 0.3054
vn -0.0918 0.9913 0.0940
vn -0.2409 0.6947 0.6777
vn -0.7936 0.5789 0.1872
vn -0.2409 -0.6947 0.6777
vn -0.0918 -0.9913 0.0940
vn -0.7936 -0.5789 0.1872
vn -0.0919 0.9929 -0.0757
vn -0.6805 0.7052 -0.1990
vn -0.1827 0.5794 -0.7943
vn -0.0919 -0.9929 -0.0757
vn -0.2409 -0.6947 -0.6777
vn -0.7989 -0.5827 -0.1491
vn 0.0821 0.9922 0.0940
vn 0.6772 0.6932 0.2465
vn 0.1624 0.5815 0.7972
vn 0.0821 -0.9922 0.0940
vn 0.2158 -0.7012 0.6796
vn 0.7936 -0.5789 0.1872
vn 0.0822 0.9937 -0.0757
vn 0.2158 0.7012 -0.6796
vn 0.7989 0.5827 -0.1491
vn 0.0822 -0.9937 -0.0757
vn 0.6805 -0.7052 -0.1990
vn 0.1624 -0.5815 -0.7972
vn -0.3042 0.9484 0.0896
vn -0.0875 0.9486 0.3042
vn -0.5944 0.5417 0.5944
vn -0.5944 -0.5417 0.5944
vn -0.0875 -0.9486 0.3042
vn -0.3042 -0.9484 0.0896
vn -0.0875 0.9486 -0.3042
vn -0.3046 0.9497 -0.0721
vn -0.5944 0.5417 -0.5944
vn -0.3046 -0.9497 -0.0721
vn -0.0875 -0.9486 -0.3042
vn -0.5944 -0.5417 -0.5944
vn 0.0783 0.9493 0.3045
vn 0.3042 0.9484 0.0896
vn 0.5944 0.5417 0.5944
vn 0.3042 -0.9484 0.0896
vn 0.0783 -0.9493 0.3045
vn 0.5944 -0.5417 0.5944
vn 0.3046 0.9497 -0.0721
vn 0.0783 0.9493 -0.3045
vn 0.5944 0.5417 -0.5944
vn 0.0783 -0.9493 -0.3045
vn 0.3046 -0.9497 -0.0721
vn 0.5944 -0.5417 -0.5944
vn -0.0916 0.9958 0.0000
vn -0.8079 0.5893 0.0000
vn -0.2241 0.0000 0.9746
vn -0.9733 0.0000 0.2296
vn -0.0916 -0.9958 0.0000
vn -0.8079 -0.5893 0.0000
vn -0.2241 0.0000 -0.9746
vn -0.9830 0.0000 -0.1835
vn 0.0000 0.9971 -0.0755
vn 0.0000 0.5893 -0.8079
vn 0.0000 -0.9971 -0.0755
vn 0.0000 -0.5893 -0.8079
vn 0.9830 0.0000 -0.1835
vn 0.1997 0.0000 -0.9799
vn 0.0819 0.9966 0.0000
vn 0.8079 0.5893 0.0000
vn 0.0819 -0.9966 0.0000
vn 0.8079 -0.5893 0.0000
vn 0.1997 0.0000 0.9799
vn 0.9733 0.0000 0.2296
vn 0.0000 0.9956 0.0938
vn 0.0000 0.5893 0.8079
vn 0.0000 -0.9956 0.0938
vn 0.0000 -0.5893 0.8079
vn -0.3054 0.9522 0.0000
vn -0.0912 0.9914 0.0934
vn -0.1827 0.5794 0.7943
vn -0.6772 0.6932 0.2465
vn -0.1827 -0.5794 0.7943
vn -0.0912 -0.9914 0.0934
vn -0.6772 -0.6932 0.2465
vn -0.0913 0.9930 -0.0752
vn -0.7989 0.5827 -0.1491
vn -0.2409 0.6947 -0.6777
vn -0.0913 -0.9930 -0.0752
vn -0.1827 -0.5794 -0.7943
vn -0.6805 -0.7052 -0.1990
vn 0.0816 0.9923 0.0935
vn 0.7936 0.5789 0.1872
vn 0.2158 0.7012 0.6796
vn 0.0816 -0.9923 0.0935
vn 0.1624 -0.5815 0.7972
vn 0.6772 -0.6932 0.2465
vn 0.0817 0.9938 -0.0752
vn 0.1624 0.5815 -0.7972
vn 0.6805 0.7052 -0.1990
vn 0.0817 -0.9938 -0.0752
vn 0.7989 -0.5827 -0.1491
vn 0.2158 -0.7012 -0.6796
usemtl マテリアル
s off
f 24/1/1 12/2/1 30/3/1
f 61/4/2 87/5/2 89/6/2
f 25/7/3 98/8/3 100/9/3
f 16/10/4 22/11/4 20/12/4
f 40/13/5 46/14/5 44/15/5
f 74/16/6 97/17/6 105/18/6
f 17/19/7 110/20/7 112/21/7
f 35/22/8 43/23/8 47/24/8
f 85/25/9 102/26/9 104/27/9
f 73/28/10 51/29/10 53/30/10
f 76/31/11 82/32/11 80/33/11
f 83/34/12 91/35/12 95/36/12
f 4/37/13 10/38/13 8/39/13
f 111/40/14 107/41/14 6/42/14
f 38/43/15 101/44/15 109/45/15
f 103/46/16 99/47/16 78/48/16
f 28/49/17 34/50/17 32/51/17
f 52/52/18 58/53/18 56/54/18
f 88/55/19 94/56/19 92/57/19
f 59/58/20 67/59/20 71/60/20
f 64/61/21 70/62/21 68/63/21
f 90/64/22 84/65/22 54/66/22
f 13/67/23 7/68/23 11/69/23
f 37/70/24 19/71/24 23/72/24
f 49/73/25 106/74/25 108/75/25
f 1/76/26 4/37/26 3/77/26
f 5/78/27 8/39/27 7/79/27
f 9/80/28 12/81/28 11/82/28
f 13/67/29 16/10/29 15/83/29
f 17/19/30 20/12/30 19/71/30
f 21/84/31 24/1/31 23/72/31
f 25/7/32 28/49/32 27/85/32
f 29/86/33 32/51/33 31/87/33
f 33/88/34 36/89/34 35/90/34
f 37/70/35 40/13/35 39/91/35
f 41/92/36 44/15/36 43/23/36
f 45/93/37 48/94/37 47/24/37
f 49/73/38 52/52/38 51/29/38
f 53/30/39 56/54/39 55/95/39
f 57/96/40 60/97/40 59/98/40
f 61/4/41 64/61/41 63/99/41
f 65/100/42 68/63/42 67/59/42
f 69/101/43 72/102/43 71/60/43
f 73/28/44 76/31/44 75/103/44
f 77/104/45 80/33/45 79/105/45
f 81/106/46 84/107/46 83/108/46
f 85/25/47 88/55/47 87/5/47
f 89/6/48 92/57/48 91/35/48
f 93/109/49 96/110/49 95/36/49
f 1/76/50 9/80/50 10/38/50
f 3/77/51 4/37/51 8/39/51
f 11/82/52 7/79/52 8/39/52
f 13/67/53 21/84/53 22/11/53
f 17/19/54 15/83/54 16/10/54
f 19/71/55 20/12/55 22/11/55
f 25/7/56 33/88/56 34/50/56
f 27/85/57 28/49/57 32/51/57
f 35/90/58 31/87/58 32/51/58
f 37/70/59 45/93/59 46/14/59
f 39/91/60 40/13/60 44/15/60
f 47/24/61 43/23/61 44/15/61
f 49/73/62 57/96/62 58/53/62
f 51/29/63 52/52/63 56/54/63
f 59/98/64 55/95/64 56/54/64
f 61/4/65 69/101/65 70/62/65
f 63/99/66 64/61/66 68/63/66
f 71/60/67 67/59/67 68/63/67
f 73/28/68 81/106/68 82/32/68
f 75/103/69 76/31/69 80/33/69
f 83/108/70 79/105/70 80/33/70
f 85/25/71 93/109/71 94/56/71
f 87/5/72 88/55/72 92/57/72
f 95/36/73 91/35/73 92/57/73
f 2/111/74 26/112/74 27/85/74
f 30/113/75 12/81/75 9/80/75
f 14/114/76 6/42/76 7/68/76
f 12/2/77 24/1/77 21/84/77
f 38/43/78 18/115/78 19/71/78
f 24/1/79 48/94/79 45/93/79
f 36/116/80 42/117/80 43/23/80
f 48/94/81 30/3/81 31/118/81
f 26/112/82 97/17/82 98/8/82
f 78/119/83 99/120/83 100/9/83
f 86/121/84 101/44/84 102/26/84
f 42/117/85 103/46/85 104/27/85
f 84/65/86 90/64/86 91/35/86
f 96/110/87 78/48/87 79/122/87
f 74/16/88 50/123/88 51/29/88
f 54/124/89 84/107/89 81/106/89
f 62/125/90 86/121/90 87/5/90
f 90/64/91 72/102/91 69/101/91
f 60/126/92 66/127/92 67/59/92
f 72/102/93 54/66/93 55/128/93
f 50/123/94 105/18/94 106/74/94
f 6/129/95 107/130/95 108/75/95
f 18/115/96 109/45/96 110/20/96
f 66/127/97 111/40/97 112/21/97
f 1/76/98 27/85/98 29/86/98
f 111/40/97 14/114/97 15/83/97
f 109/45/96 62/125/96 63/99/96
f 107/130/95 60/97/95 57/96/95
f 105/18/94 2/111/94 3/77/94
f 103/46/85 96/110/85 93/109/85
f 101/44/84 38/43/84 39/91/84
f 99/120/83 36/89/83 33/88/83
f 97/17/82 74/16/82 75/103/82
f 106/74/25 3/77/25 5/78/25
f 42/117/16 36/116/16 99/47/16
f 101/44/15 86/121/15 62/125/15
f 66/127/14 60/126/14 107/41/14
f 102/26/9 39/91/9 41/92/9
f 110/20/7 63/99/7 65/100/7
f 97/17/6 26/112/6 2/111/6
f 98/8/3 75/103/3 77/104/3
f 24/1/1 30/3/1 48/94/1
f 61/4/2 89/6/2 69/101/2
f 25/7/3 100/9/3 33/88/3
f 74/16/6 105/18/6 50/123/6
f 17/19/7 112/21/7 15/83/7
f 35/22/8 47/24/8 31/118/8
f 85/25/9 104/27/9 93/109/9
f 73/28/10 53/30/10 81/106/10
f 83/34/12 95/36/12 79/122/12
f 111/40/14 6/42/14 14/114/14
f 38/43/15 109/45/15 18/115/15
f 103/46/16 78/48/16 96/110/16
f 59/58/20 71/60/20 55/128/20
f 90/64/22 54/66/22 72/102/22
f 13/67/23 11/69/23 21/84/23
f 37/70/24 23/72/24 45/93/24
f 49/73/25 108/75/25 57/96/25
f 1/76/99 3/77/99 2/111/99
f 5/78/100 7/79/100 6/129/100
f 9/80/101 11/82/101 10/38/101
f 13/67/102 15/83/102 14/114/102
f 17/19/103 19/71/103 18/115/103
f 21/84/104 23/72/104 22/11/104
f 25/7/105 27/85/105 26/112/105
f 29/86/106 31/87/106 30/113/106
f 33/88/107 35/90/107 34/50/107
f 37/70/108 39/91/108 38/43/108
f 41/92/109 43/23/109 42/117/109
f 45/93/110 47/24/110 46/14/110
f 49/73/111 51/29/111 50/123/111
f 53/30/112 55/95/112 54/124/112
f 57/96/113 59/98/113 58/53/113
f 61/4/114 63/99/114 62/125/114
f 65/100/115 67/59/115 66/127/115
f 69/101/116 71/60/116 70/62/116
f 73/28/117 75/103/117 74/16/117
f 77/104/118 79/105/118 78/119/118
f 81/106/119 83/108/119 82/32/119
f 85/25/120 87/5/120 86/121/120
f 89/6/121 91/35/121 90/64/121
f 93/109/122 95/36/122 94/56/122
f 1/76/50 10/38/50 4/37/50
f 3/77/51 8/39/51 5/78/51
f 11/82/52 8/39/52 10/38/52
f 13/67/53 22/11/53 16/10/53
f 17/19/54 16/10/54 20/12/54
f 19/71/55 22/11/55 23/72/55
f 25/7/56 34/50/56 28/49/56
f 27/85/57 32/51/57 29/86/57
f 35/90/58 32/51/58 34/50/58
f 37/70/59 46/14/59 40/13/59
f 39/91/60 44/15/60 41/92/60
f 47/24/61 44/15/61 46/14/61
f 49/73/62 58/53/62 52/52/62
f 51/29/63 56/54/63 53/30/63
f 59/98/64 56/54/64 58/53/64
f 61/4/65 70/62/65 64/61/65
f 63/99/66 68/63/66 65/100/66
f 71/60/67 68/63/67 70/62/67
f 73/28/68 82/32/68 76/31/68
f 75/103/69 80/33/69 77/104/69
f 83/108/70 80/33/70 82/32/70
f 85/25/71 94/56/71 88/55/71
f 87/5/72 92/57/72 89/6/72
f 95/36/73 92/57/73 94/56/73
f 2/111/74 27/85/74 1/76/74
f 30/113/75 9/80/75 29/86/75
f 14/114/76 7/68/76 13/67/76
f 12/2/77 21/84/77 11/69/77
f 38/43/78 19/71/78 37/70/78
f 24/1/79 45/93/79 23/72/79
f 36/116/80 43/23/80 35/22/80
f 48/94/81 31/118/81 47/24/81
f 26/112/82 98/8/82 25/7/82
f 78/119/83 100/9/83 77/104/83
f 86/121/84 102/26/84 85/25/84
f 42/117/85 104/27/85 41/92/85
f 84/65/86 91/35/86 83/34/86
f 96/110/87 79/122/87 95/36/87
f 74/16/88 51/29/88 73/28/88
f 54/124/89 81/106/89 53/30/89
f 62/125/90 87/5/90 61/4/90
f 90/64/91 69/101/91 89/6/91
f 60/126/92 67/59/92 59/58/92
f 72/102/93 55/128/93 71/60/93
f 50/123/94 106/74/94 49/73/94
f 6/129/95 108/75/95 5/78/95
f 18/115/96 110/20/96 17/19/96
f 66/127/97 112/21/97 65/100/97
f 1/76/98 29/86/98 9/80/98
f 111/40/97 15/83/97 112/21/97
f 109/45/96 63/99/96 110/20/96
f 107/130/95 57/96/95 108/75/95
f 105/18/94 3/77/94 106/74/94
f 103/46/85 93/109/85 104/27/85
f 101/44/84 39/91/84 102/26/84
f 99/120/83 33/88/83 100/9/83
f 97/17/82 75/103/82 98/8/82
f 106/74/25 5/78/25 108/75/25
f 42/117/16 99/47/16 103/46/16
f 101/44/15 62/125/15 109/45/15
f 66/127/14 107/41/14 111/40/14
f 102/26/9 41/92/9 104/27/9
f 110/20/7 65/100/7 112/21/7
f 97/17/6 2/111/6 105/18/6
f 98/8/3 77/104/3 100/9/3
