# Blender v3.1.2 OBJ File: 'take - コピー.blend'
# www.blender.org
mtllib take.mtl
o 円柱
v 2.759184 0.444799 -8.064077
v 2.759240 0.444799 8.063913
v 2.605539 -0.061702 -8.064072
v 2.605595 -0.061702 8.063918
v 2.356032 -0.528496 -8.064065
v 2.356088 -0.528496 8.063925
v 2.020253 -0.937645 -8.064054
v 2.020308 -0.937645 8.063935
v 1.611104 -1.273425 -8.064042
v 1.611160 -1.273425 8.063949
v 1.144310 -1.522932 -8.064028
v 1.144366 -1.522931 8.063962
v 0.637808 -1.676577 -8.064012
v 0.637864 -1.676577 8.063979
v -0.000028 -1.728457 -8.063995
v 0.000028 -1.728457 8.063995
v -0.654955 -1.676577 -8.063979
v -0.654899 -1.676577 8.064012
v -1.161456 -1.522932 -8.063964
v -1.161401 -1.522931 8.064027
v -1.628251 -1.273425 -8.063949
v -1.628195 -1.273425 8.064042
v -2.037399 -0.937645 -8.063935
v -2.037344 -0.937645 8.064054
v -2.373179 -0.528497 -8.063925
v -2.373123 -0.528497 8.064065
v -2.622686 -0.061702 -8.063918
v -2.622630 -0.061702 8.064072
v -2.776331 0.444799 -8.063913
v -2.776275 0.444799 8.064077
v -2.266475 0.538309 8.064062
v -1.940935 -0.247614 8.064051
v -1.669798 -0.577996 8.064042
v -2.142409 0.129316 8.064057
v 0.000028 -1.216565 8.063995
v 0.536458 -1.174673 8.063981
v 1.322381 -0.849133 8.063958
v 1.652763 -0.577996 8.063947
v 0.945451 -1.050606 8.063970
v -1.339417 -0.849133 8.064033
v -0.553493 -1.174673 8.064009
v -0.962487 -1.050606 8.064020
v 1.923900 -0.247614 8.063938
v 2.125374 0.129316 8.063933
v 2.249440 0.538309 8.063929
v 1.652707 -0.577996 -8.064042
v 1.322325 -0.849133 -8.064033
v 2.125318 0.129316 -8.064056
v 2.249384 0.538309 -8.064061
v 1.923845 -0.247614 -8.064051
v -1.940991 -0.247614 -8.063938
v -1.669854 -0.577996 -8.063947
v -1.339472 -0.849133 -8.063958
v -0.553549 -1.174673 -8.063981
v -0.962542 -1.050606 -8.063970
v 0.945396 -1.050606 -8.064020
v -2.142465 0.129316 -8.063932
v -2.266531 0.538309 -8.063928
v -0.000028 -1.216565 -8.063995
v 0.536403 -1.174673 -8.064009
v 2.759184 0.830281 -8.064077
v 2.759240 0.830281 8.063913
v -2.776331 0.830281 -8.063913
v -2.776275 0.830281 8.064077
v -2.266475 0.830281 8.064062
v 2.249440 0.830281 8.063929
v 2.249384 0.830281 -8.064061
v -2.266531 0.830281 -8.063928
v 2.955108 0.512110 -8.357528
v 2.790585 -0.030252 -8.357522
v 2.523413 -0.530096 -8.357514
v 2.163860 -0.968213 -8.357504
v 1.725743 -1.327766 -8.357491
v 1.225899 -1.594938 -8.357474
v 0.683537 -1.759462 -8.357458
v 0.000541 -1.815014 -8.357440
v -0.700755 -1.759462 -8.357423
v -1.243117 -1.594938 -8.357407
v -1.742961 -1.327766 -8.357390
v -2.181077 -0.968213 -8.357376
v -2.540630 -0.530097 -8.357366
v -2.807802 -0.030253 -8.357357
v -2.972326 0.512110 -8.357352
v 1.670123 -0.589166 -8.357491
v 1.334434 -0.859939 -8.357481
v 2.134937 0.126214 -8.357507
v 2.247803 0.532290 -8.357512
v 1.949555 -0.258771 -8.357500
v -1.959923 -0.256459 -8.357380
v -1.687807 -0.590357 -8.357388
v -1.354439 -0.859447 -8.357399
v -0.556926 -1.194179 -8.357426
v -0.976978 -1.065270 -8.357413
v 0.950441 -1.065745 -8.357467
v -2.153413 0.128388 -8.357373
v -2.270484 0.522203 -8.370577
v -0.000839 -1.237370 -8.357440
v 0.540647 -1.197260 -8.357454
v 2.955108 0.924884 -8.357528
v -2.972326 0.924884 -8.357352
v 2.247803 0.924884 -8.357512
v -2.273126 0.924884 -8.357368
v 2.955151 0.512105 8.347428
v 2.790628 -0.030254 8.347433
v 2.523457 -0.530096 8.347442
v 2.163905 -0.968211 8.347451
v 1.725791 -1.327763 8.347466
v 1.225949 -1.594933 8.347482
v 0.683590 -1.759457 8.347498
v 0.000597 -1.815009 8.347516
v -0.700696 -1.759457 8.347532
v -1.243056 -1.594933 8.347549
v -1.742897 -1.327762 8.347566
v -2.181012 -0.968211 8.347579
v -2.540563 -0.530097 8.347589
v -2.807734 -0.030255 8.347597
v -2.972257 0.512105 8.347604
v -2.266153 0.542175 8.347588
v -1.956849 -0.259656 8.347575
v -1.683308 -0.585083 8.347567
v -2.151260 0.122880 8.347583
v 0.001326 -1.238560 8.347516
v 0.539834 -1.195709 8.347501
v 1.335408 -0.864191 8.347475
v 1.671608 -0.593814 8.347466
v 0.955715 -1.075333 8.347488
v -1.347878 -0.859374 8.347556
v -0.560561 -1.191800 8.347529
v -0.972831 -1.062484 8.347543
v 1.947280 -0.264594 8.347456
v 2.136193 0.127013 8.347450
v 2.254991 0.537230 8.347445
v 2.955151 0.924878 8.347428
v -2.972257 0.924878 8.347604
v -2.266576 0.924878 8.347588
v 2.251282 0.924878 8.347445
vt 0.718750 1.000000
vt 0.687500 0.500000
vt 0.718750 0.500000
vt 0.687500 1.000000
vt 0.656250 0.500000
vt 0.656250 1.000000
vt 0.625000 0.500000
vt 0.625000 1.000000
vt 0.593750 0.500000
vt 0.593750 1.000000
vt 0.562500 0.500000
vt 0.562500 1.000000
vt 0.531250 0.500000
vt 0.531250 1.000000
vt 0.500000 0.500000
vt 0.500000 1.000000
vt 0.468750 0.500000
vt 0.468750 1.000000
vt 0.437500 0.500000
vt 0.437500 1.000000
vt 0.406250 0.500000
vt 0.406250 1.000000
vt 0.375000 0.500000
vt 0.375000 1.000000
vt 0.343750 0.500000
vt 0.343750 1.000000
vt 0.312500 0.500000
vt 0.312500 1.000000
vt 0.281250 0.500000
vt 0.312500 0.592055
vt 0.281250 0.592055
vt 0.281250 0.592055
vt 0.718750 0.907945
vt 0.687500 0.592055
vt 0.687500 0.907945
vt 0.656250 0.592055
vt 0.656250 0.907945
vt 0.656250 0.907945
vt 0.625000 0.592055
vt 0.625000 0.907945
vt 0.593750 0.592055
vt 0.593750 0.907945
vt 0.562500 0.592055
vt 0.562500 0.907945
vt 0.531250 0.592055
vt 0.531250 0.907945
vt 0.500000 0.592055
vt 0.500000 0.907945
vt 0.468750 0.592055
vt 0.468750 0.907945
vt 0.437500 0.592055
vt 0.437500 0.907945
vt 0.406250 0.592055
vt 0.406250 0.907945
vt 0.375000 0.592055
vt 0.375000 0.907945
vt 0.343750 0.592055
vt 0.343750 0.907945
vt 0.312500 0.907945
vt 0.281250 1.000000
vt 0.281250 1.000000
vt 0.281250 1.000000
vt 0.437500 1.000000
vt 0.406250 1.000000
vt 0.500000 0.592055
vt 0.281250 1.000000
vt 0.281250 0.500000
vt 0.343750 0.592055
vt 0.312500 0.592055
vt 0.281250 0.907945
vt 0.281250 0.907945
vt 0.500000 0.907945
vt 0.718750 1.000000
vt 0.718750 0.592055
vt 0.718750 0.592055
vt 0.281250 0.592055
vt 0.718750 0.500000
vt 0.500000 0.500000
vt 0.531250 0.592055
vt 0.281250 0.500000
vt 0.281250 0.592055
vt 0.718750 0.592055
vt 0.718750 0.500000
vt 0.718750 0.500000
vt 0.656250 0.500000
vt 0.687500 0.500000
vt 0.468750 0.500000
vt 0.593750 0.592055
vt 0.625000 0.500000
vt 0.437500 0.500000
vt 0.687500 0.592055
vt 0.281250 0.500000
vt 0.656250 0.592055
vt 0.625000 0.592055
vt 0.593750 0.500000
vt 0.406250 0.500000
vt 0.468750 0.592055
vt 0.406250 0.592055
vt 0.375000 0.592055
vt 0.562500 0.500000
vt 0.375000 0.500000
vt 0.437500 0.592055
vt 0.531250 0.500000
vt 0.718750 0.592055
vt 0.343750 0.500000
vt 0.312500 0.500000
vt 0.562500 0.592055
vt 0.656250 0.592055
vt 0.500000 1.000000
vt 0.468750 0.907945
vt 0.718750 0.907945
vt 0.718750 1.000000
vt 0.718750 0.907945
vt 0.281250 0.907945
vt 0.687500 0.907945
vt 0.375000 1.000000
vt 0.531250 0.907945
vt 0.562500 0.907945
vt 0.343750 1.000000
vt 0.312500 1.000000
vt 0.687500 1.000000
vt 0.375000 0.907945
vt 0.656250 1.000000
vt 0.437500 0.907945
vt 0.312500 0.907945
vt 0.343750 0.907945
vt 0.625000 1.000000
vt 0.625000 0.907945
vt 0.656250 0.907945
vt 0.593750 1.000000
vt 0.281250 0.907945
vt 0.562500 1.000000
vt 0.531250 1.000000
vt 0.718750 1.000000
vt 0.593750 0.907945
vt 0.718750 0.907945
vt 0.468750 1.000000
vt 0.406250 0.907945
vt 0.656250 0.592055
vt 0.656250 0.907945
vn 0.9569 -0.2903 -0.0000
vn 0.8819 -0.4714 -0.0000
vn 0.7730 -0.6344 -0.0000
vn 0.6344 -0.7730 -0.0000
vn 0.4714 -0.8819 -0.0000
vn 0.2903 -0.9569 -0.0000
vn 0.0811 -0.9967 -0.0000
vn -0.0790 -0.9969 0.0000
vn -0.2903 -0.9569 0.0000
vn -0.4714 -0.8819 0.0000
vn -0.6344 -0.7730 0.0000
vn -0.7730 -0.6344 0.0000
vn -0.8819 -0.4714 0.0000
vn -0.9569 -0.2903 0.0000
vn 0.9566 0.2902 -0.0276
vn -0.9569 0.2903 0.0000
vn -0.8819 0.4714 0.0000
vn -0.7730 0.6344 0.0000
vn -0.6344 0.7730 0.0000
vn -0.4714 0.8819 0.0000
vn -0.2903 0.9569 0.0000
vn -0.0779 0.9970 0.0000
vn 0.0755 0.9971 -0.0000
vn 0.2903 0.9569 -0.0000
vn 0.4714 0.8819 -0.0000
vn 0.6344 0.7730 -0.0000
vn 0.7730 0.6344 -0.0000
vn 0.8819 0.4714 -0.0000
vn 0.9569 0.2903 -0.0000
vn -0.8226 0.0000 -0.5686
vn -0.4436 -0.8299 -0.3385
vn -0.0777 0.9945 -0.0703
vn -1.0000 0.0000 0.0000
vn 0.8929 0.4489 -0.0347
vn 1.0000 0.0000 -0.0000
vn 0.0752 0.9942 0.0768
vn 0.0000 1.0000 0.0000
vn -0.0000 -0.0000 -1.0000
vn -0.0000 0.0328 -0.9995
vn 0.7870 -0.4207 0.4512
vn -0.2768 -0.9126 0.3010
vn -0.6335 0.7719 -0.0546
vn 0.7064 -0.5797 0.4061
vn -0.4453 -0.8330 0.3283
vn -0.9629 0.2676 -0.0344
vn -0.8316 0.0000 0.5554
vn -0.7711 0.6328 -0.0699
vn 0.5908 -0.7199 0.3641
vn 0.9998 0.0072 -0.0201
vn -0.5908 -0.7199 0.3643
vn 0.0773 0.9948 -0.0670
vn 0.6265 0.7762 -0.0710
vn 0.4453 -0.8331 0.3282
vn -1.0000 0.0000 0.0054
vn -0.7063 -0.5797 0.4062
vn 0.8317 0.0000 0.5553
vn 0.2928 0.9542 -0.0621
vn 0.2768 -0.9126 0.3009
vn 0.7733 0.6302 -0.0689
vn 0.0000 0.9518 0.3068
vn -0.7870 -0.4206 0.4514
vn 0.0778 -0.9562 0.2822
vn 0.4780 0.8766 -0.0552
vn -0.8304 -0.2519 0.4969
vn -0.3047 0.9493 -0.0775
vn -0.4707 0.8807 -0.0535
vn 0.8305 -0.2519 0.4967
vn -0.8780 0.4693 -0.0948
vn -0.0758 -0.9564 0.2820
vn 0.0000 -0.0000 1.0000
vn -0.8813 0.4711 0.0375
vn -0.5880 -0.7165 -0.3752
vn -0.2768 0.9564 0.0934
vn -0.7023 -0.5763 -0.4180
vn -0.7813 -0.4176 -0.4638
vn 1.0000 0.0000 -0.0011
vn -0.8233 -0.2497 -0.5098
vn 0.8233 -0.2498 -0.5096
vn 0.7719 0.6335 0.0526
vn 0.7814 -0.4177 -0.4636
vn 0.4707 0.8806 0.0541
vn 0.8893 0.4520 0.0691
vn 0.7023 -0.5764 -0.4178
vn -0.7628 0.6387 0.1012
vn 0.5881 -0.7166 -0.3751
vn -0.0000 0.9486 -0.3165
vn 0.9638 0.2641 0.0361
vn 0.4436 -0.8299 -0.3384
vn 0.2897 0.9549 0.0649
vn -0.0791 0.9941 0.0747
vn 0.2759 -0.9097 -0.3104
vn -0.9603 0.2781 0.0199
vn 0.8227 0.0000 -0.5685
vn -0.6244 0.7765 0.0848
vn 0.0775 -0.9535 -0.2912
vn -0.9999 -0.0096 0.0097
vn -0.4849 0.8719 0.0686
vn -0.0756 -0.9537 -0.2910
vn 0.6337 0.7722 0.0468
vn -0.2759 -0.9096 -0.3105
vn 0.9582 0.2836 -0.0366
vn -0.0737 0.9943 -0.0776
vn 0.8797 0.4702 -0.0709
vn 0.0828 0.9946 0.0621
vn -0.0188 -0.0057 -0.9998
vn 0.0076 -0.0313 -0.9995
vn -0.0188 0.0000 -0.9998
vn -0.6264 0.7766 -0.0667
vn -0.9569 0.2903 -0.0008
vn -0.7604 0.6431 -0.0911
vn 0.9999 0.0000 -0.0129
vn 0.0753 0.9947 -0.0707
vn 0.6333 0.7716 -0.0594
vn 0.2896 0.9548 -0.0668
vn 0.7709 0.6327 -0.0738
vn -0.7870 -0.4207 0.4514
vn 0.4703 0.8799 -0.0671
vn -0.2899 0.9555 -0.0543
vn -0.4718 0.8802 -0.0519
vn -0.9005 0.4336 -0.0341
vn -0.8962 0.4323 0.0998
vn -0.2895 0.9543 0.0743
vn 1.0000 0.0011 -0.0000
vn 0.7636 0.6419 0.0701
vn 0.4757 0.8784 0.0459
vn 0.8813 0.4711 0.0382
vn -0.7701 0.6320 0.0865
vn 0.9569 0.2903 -0.0050
vn 0.2989 0.9529 0.0508
vn -0.0776 0.9940 0.0775
vn -0.9562 0.2901 0.0388
vn -0.6328 0.7711 0.0700
vn -0.9998 0.0000 0.0196
vn -0.4693 0.8781 0.0936
vn 0.6323 0.7732 0.0495
usemtl None
s off
f 2/1/1 3/2/1 1/3/1
f 4/4/2 5/5/2 3/2/2
f 6/6/3 7/7/3 5/5/3
f 8/8/4 9/9/4 7/7/4
f 10/10/5 11/11/5 9/9/5
f 12/12/6 13/13/6 11/11/6
f 14/14/7 15/15/7 13/13/7
f 16/16/8 17/17/8 15/15/8
f 18/18/9 19/19/9 17/17/9
f 20/20/10 21/21/10 19/19/10
f 22/22/11 23/23/11 21/21/11
f 24/24/12 25/25/12 23/23/12
f 26/26/13 27/27/13 25/25/13
f 28/28/14 29/29/14 27/27/14
f 57/30/15 96/31/15 58/32/15
f 45/33/16 48/34/16 44/35/16
f 44/35/17 50/36/17 43/37/17
f 43/38/18 46/39/18 38/40/18
f 38/40/19 47/41/19 37/42/19
f 37/42/20 56/43/20 39/44/20
f 39/44/21 60/45/21 36/46/21
f 36/46/22 59/47/22 35/48/22
f 35/48/23 54/49/23 41/50/23
f 41/50/24 55/51/24 42/52/24
f 42/52/25 53/53/25 40/54/25
f 40/54/26 52/55/26 33/56/26
f 51/57/27 33/56/27 52/55/27
f 57/30/28 32/58/28 51/57/28
f 58/32/29 34/59/29 57/30/29
f 64/60/30 117/61/30 134/62/30
f 22/22/31 112/63/31 113/64/31
f 60/45/32 97/65/32 59/47/32
f 30/66/33 63/67/33 29/29/33
f 57/30/34 89/68/34 95/69/34
f 58/32/35 65/70/35 31/71/35
f 41/50/36 122/72/36 35/48/36
f 1/3/35 62/73/35 2/1/35
f 45/33/33 67/74/33 49/75/33
f 63/67/37 65/70/37 68/76/37
f 67/74/37 62/73/37 61/77/37
f 76/78/38 97/65/38 98/79/38
f 96/31/39 100/80/39 102/81/39
f 87/82/38 99/83/38 69/84/38
f 3/2/40 71/85/40 70/86/40
f 19/19/41 77/87/41 17/17/41
f 46/39/42 85/88/42 47/41/42
f 5/5/43 72/89/43 71/85/43
f 21/21/44 78/90/44 19/19/44
f 48/34/45 87/82/45 86/91/45
f 63/67/46 83/92/46 29/29/46
f 50/93/47 84/94/47 46/39/47
f 7/7/48 73/95/48 72/89/48
f 68/76/49 96/31/49 102/81/49
f 23/23/50 79/96/50 21/21/50
f 54/49/51 97/65/51 92/97/51
f 52/55/52 91/98/52 90/99/52
f 9/9/53 74/100/53 73/95/53
f 67/74/54 87/82/54 49/75/54
f 25/25/55 80/101/55 23/23/55
f 61/77/56 69/84/56 99/83/56
f 55/51/57 92/97/57 93/102/57
f 11/11/58 75/103/58 74/100/58
f 51/57/59 90/99/59 89/68/59
f 61/77/60 101/104/60 67/74/60
f 27/27/61 81/105/61 25/25/61
f 63/67/60 102/81/60 100/80/60
f 13/13/62 76/78/62 75/103/62
f 53/53/63 93/102/63 91/98/63
f 29/29/64 82/106/64 27/27/64
f 60/45/65 94/107/65 98/79/65
f 47/41/66 94/107/66 56/43/66
f 1/3/67 70/86/67 69/84/67
f 48/34/68 88/108/68 50/36/68
f 17/17/69 76/78/69 15/15/69
f 110/109/70 122/72/70 128/110/70
f 132/111/70 133/112/70 136/113/70
f 118/114/70 134/62/70 117/61/70
f 43/37/71 131/115/71 44/35/71
f 24/24/72 113/64/72 114/116/72
f 39/44/73 123/117/73 126/118/73
f 26/26/74 114/116/74 115/119/74
f 28/28/75 115/119/75 116/120/75
f 65/70/76 118/114/76 31/71/76
f 30/66/77 116/120/77 117/61/77
f 2/1/78 104/121/78 4/4/78
f 32/58/79 120/122/79 33/56/79
f 4/4/80 105/123/80 6/6/80
f 40/54/81 129/124/81 42/52/81
f 32/58/82 121/125/82 119/126/82
f 6/6/83 106/127/83 8/8/83
f 43/38/84 125/128/84 130/129/84
f 8/8/85 107/130/85 10/10/85
f 64/60/86 135/131/86 65/70/86
f 34/59/87 118/114/87 121/125/87
f 10/10/88 108/132/88 12/12/88
f 42/52/89 128/110/89 41/50/89
f 62/73/86 136/113/86 133/112/86
f 36/46/90 122/72/90 123/117/90
f 12/12/91 109/133/91 14/14/91
f 45/33/92 131/115/92 132/111/92
f 62/73/93 103/134/93 2/1/93
f 38/40/94 124/135/94 125/128/94
f 14/14/95 110/109/95 16/16/95
f 66/136/96 132/111/96 136/113/96
f 37/42/97 126/118/97 124/135/97
f 18/18/98 110/109/98 111/137/98
f 33/56/99 127/138/99 40/54/99
f 20/20/100 111/137/100 112/63/100
f 2/1/1 4/4/1 3/2/1
f 4/4/2 6/6/2 5/5/2
f 6/6/3 8/8/3 7/7/3
f 8/8/4 10/10/4 9/9/4
f 10/10/5 12/12/5 11/11/5
f 12/12/6 14/14/6 13/13/6
f 14/14/7 16/16/7 15/15/7
f 16/16/8 18/18/8 17/17/8
f 18/18/9 20/20/9 19/19/9
f 20/20/10 22/22/10 21/21/10
f 22/22/11 24/24/11 23/23/11
f 24/24/12 26/26/12 25/25/12
f 26/26/13 28/28/13 27/27/13
f 28/28/14 30/66/14 29/29/14
f 57/30/101 95/69/101 96/31/101
f 45/33/16 49/75/16 48/34/16
f 44/35/17 48/34/17 50/36/17
f 43/38/18 50/93/18 46/39/18
f 38/40/19 46/39/19 47/41/19
f 37/42/20 47/41/20 56/43/20
f 39/44/21 56/43/21 60/45/21
f 36/46/22 60/45/22 59/47/22
f 35/48/23 59/47/23 54/49/23
f 41/50/24 54/49/24 55/51/24
f 42/52/25 55/51/25 53/53/25
f 40/54/26 53/53/26 52/55/26
f 51/57/27 32/58/27 33/56/27
f 57/30/28 34/59/28 32/58/28
f 58/32/29 31/71/29 34/59/29
f 64/60/30 30/66/30 117/61/30
f 22/22/31 20/20/31 112/63/31
f 60/45/102 98/79/102 97/65/102
f 30/66/33 64/60/33 63/67/33
f 57/30/103 51/57/103 89/68/103
f 58/32/35 68/76/35 65/70/35
f 41/50/104 128/110/104 122/72/104
f 1/3/35 61/77/35 62/73/35
f 45/33/33 66/136/33 67/74/33
f 63/67/37 64/60/37 65/70/37
f 67/74/37 66/136/37 62/73/37
f 69/84/38 70/86/38 87/82/38
f 70/86/38 71/85/38 86/91/38
f 87/82/38 70/86/38 86/91/38
f 71/85/38 72/89/38 88/139/38
f 72/89/38 73/95/38 84/94/38
f 73/95/38 74/100/38 85/88/38
f 74/100/38 75/103/38 94/107/38
f 85/88/38 74/100/38 94/107/38
f 75/103/38 76/78/38 98/79/38
f 76/78/38 77/87/38 92/97/38
f 77/87/38 78/90/38 93/102/38
f 78/90/38 79/96/38 91/98/38
f 93/102/38 78/90/38 91/98/38
f 79/96/38 80/101/38 90/99/38
f 80/101/38 81/105/38 89/68/38
f 81/105/38 82/106/38 95/69/38
f 82/106/105 83/92/105 96/31/105
f 95/69/106 82/106/106 96/31/106
f 95/69/38 89/68/38 81/105/38
f 80/101/38 89/68/38 90/99/38
f 76/78/38 92/97/38 97/65/38
f 72/89/38 84/94/38 88/139/38
f 84/94/38 73/95/38 85/88/38
f 88/139/38 86/91/38 71/85/38
f 79/96/38 90/99/38 91/98/38
f 77/87/38 93/102/38 92/97/38
f 98/79/38 94/107/38 75/103/38
f 96/31/107 83/92/107 100/80/107
f 87/82/38 101/104/38 99/83/38
f 3/2/40 5/5/40 71/85/40
f 19/19/41 78/90/41 77/87/41
f 46/39/108 84/94/108 85/88/108
f 5/5/43 7/7/43 72/89/43
f 21/21/44 79/96/44 78/90/44
f 48/34/109 49/75/109 87/82/109
f 63/67/46 100/80/46 83/92/46
f 50/93/110 88/139/110 84/94/110
f 7/7/48 9/9/48 73/95/48
f 68/76/111 58/32/111 96/31/111
f 23/23/50 80/101/50 79/96/50
f 54/49/112 59/47/112 97/65/112
f 52/55/113 53/53/113 91/98/113
f 9/9/53 11/11/53 74/100/53
f 67/74/54 101/104/54 87/82/54
f 25/25/55 81/105/55 80/101/55
f 61/77/56 1/3/56 69/84/56
f 55/51/114 54/49/114 92/97/114
f 11/11/58 13/13/58 75/103/58
f 51/57/115 52/55/115 90/99/115
f 61/77/60 99/83/60 101/104/60
f 27/27/116 82/106/116 81/105/116
f 63/67/60 68/76/60 102/81/60
f 13/13/62 15/15/62 76/78/62
f 53/53/117 55/51/117 93/102/117
f 29/29/64 83/92/64 82/106/64
f 60/45/118 56/43/118 94/107/118
f 47/41/119 85/88/119 94/107/119
f 1/3/67 3/2/67 70/86/67
f 48/34/120 86/91/120 88/108/120
f 17/17/69 77/87/69 76/78/69
f 121/125/70 118/114/70 116/120/70
f 118/114/70 117/61/70 116/120/70
f 116/120/70 115/119/70 121/125/70
f 115/119/70 114/116/70 119/126/70
f 114/116/70 113/64/70 120/122/70
f 119/126/70 114/116/70 120/122/70
f 113/64/70 112/63/70 127/138/70
f 112/63/70 111/137/70 129/124/70
f 127/138/70 112/63/70 129/124/70
f 111/137/70 110/109/70 128/110/70
f 110/109/70 109/133/70 123/117/70
f 109/133/70 108/132/70 126/118/70
f 108/132/70 107/130/70 124/135/70
f 126/118/70 108/132/70 124/135/70
f 107/130/70 106/127/70 125/128/70
f 106/127/70 105/123/70 130/140/70
f 105/123/70 104/121/70 131/115/70
f 104/121/70 103/134/70 132/111/70
f 131/115/70 104/121/70 132/111/70
f 131/115/70 130/140/70 105/123/70
f 106/127/70 130/140/70 125/128/70
f 110/109/70 123/117/70 122/72/70
f 119/126/70 121/125/70 115/119/70
f 120/122/70 113/64/70 127/138/70
f 107/130/70 125/128/70 124/135/70
f 109/133/70 126/118/70 123/117/70
f 128/110/70 129/124/70 111/137/70
f 132/111/70 103/134/70 133/112/70
f 118/114/70 135/131/70 134/62/70
f 43/37/121 130/140/121 131/115/121
f 24/24/72 22/22/72 113/64/72
f 39/44/122 36/46/122 123/117/122
f 26/26/74 24/24/74 114/116/74
f 28/28/75 26/26/75 115/119/75
f 65/70/123 135/131/123 118/114/123
f 30/66/77 28/28/77 116/120/77
f 2/1/78 103/134/78 104/121/78
f 32/58/124 119/126/124 120/122/124
f 4/4/80 104/121/80 105/123/80
f 40/54/125 127/138/125 129/124/125
f 32/58/126 34/59/126 121/125/126
f 6/6/83 105/123/83 106/127/83
f 43/38/127 38/40/127 125/128/127
f 8/8/85 106/127/85 107/130/85
f 64/60/86 134/62/86 135/131/86
f 34/59/128 31/71/128 118/114/128
f 10/10/88 107/130/88 108/132/88
f 42/52/129 129/124/129 128/110/129
f 62/73/86 66/136/86 136/113/86
f 36/46/130 35/48/130 122/72/130
f 12/12/91 108/132/91 109/133/91
f 45/33/131 44/35/131 131/115/131
f 62/73/93 133/112/93 103/134/93
f 38/40/132 37/42/132 124/135/132
f 14/14/95 109/133/95 110/109/95
f 66/136/133 45/33/133 132/111/133
f 37/42/134 39/44/134 126/118/134
f 18/18/98 16/16/98 110/109/98
f 33/56/135 120/122/135 127/138/135
f 20/20/100 18/18/100 111/137/100
